<?xml version="1.0" standalone="no"?>
<!DOCTYPE svg PUBLIC "-//W3C//DTD SVG 20010904//EN"
 "http://www.w3.org/TR/2001/REC-SVG-20010904/DTD/svg10.dtd">
<svg version="1.0" xmlns="http://www.w3.org/2000/svg"
 width="225.000000pt" height="225.000000pt" viewBox="0 0 225.000000 225.000000"
 preserveAspectRatio="xMidYMid meet">
<g transform="translate(0.000000,225.000000) scale(0.050000,-0.050000)"
fill="#000000" stroke="none">
<path d="M1880 4090 c-1350 -277 -1927 -1882 -1067 -2969 866 -1096 2616 -841
3153 459 559 1355 -646 2805 -2086 2510z m709 -92 c1043 -182 1683 -1334 1303
-2345 -112 -296 -383 -649 -617 -802 -30 -19 -50 -42 -45 -51 5 -8 -2 -15 -15
-14 -14 1 -101 -35 -195 -81 -1199 -581 -2589 339 -2513 1665 61 1069 1014
1814 2082 1628z"/>
<path d="M2174 3487 c-35 -35 -13 -87 37 -87 42 0 51 8 45 45 -6 44 -55 69
-82 42z"/>
<path d="M2300 3358 c-275 -77 -280 -79 -280 -116 0 -59 37 -60 250 -3 167 44
200 59 200 92 0 46 -64 56 -170 27z"/>
<path d="M2211 3178 c-245 -65 -292 -99 -220 -159 49 -40 515 77 538 134 37
97 -31 102 -318 25z"/>
<path d="M2242 2999 c-306 -82 -330 -93 -319 -152 12 -59 91 -55 382 22 148
39 276 71 284 71 7 0 8 8 2 18 -6 10 7 14 29 8 34 -9 40 -1 40 52 0 83 -44 81
-418 -19z"/>
<path d="M1490 3002 c-226 -105 -250 -183 -250 -822 0 -851 -1 -850 1020 -850
991 0 1000 7 1000 850 0 612 -25 697 -239 805 -136 69 -321 79 -321 17 0 -60
-32 -74 -361 -160 -365 -96 -388 -98 -431 -32 -34 52 0 150 53 150 11 0 9 17
-6 40 -35 56 -345 58 -465 2z m522 -520 c114 -70 154 -211 95 -336 -92 -194
-382 -194 -474 0 -85 179 38 374 237 374 44 0 108 -17 142 -38z m790 -40 c71
-70 78 -87 78 -182 0 -265 -343 -360 -481 -134 -159 261 187 533 403 316z"/>
<path d="M1747 2392 c-45 -38 -56 -65 -56 -132 0 -208 283 -251 348 -53 59
178 -148 309 -292 185z"/>
<path d="M2518 2414 c-93 -71 -102 -193 -20 -276 122 -121 302 -48 302 122 0
145 -172 239 -282 154z"/>
<path d="M1094 2508 c-8 -8 -14 -157 -14 -331 l0 -317 60 0 61 0 -6 325 c-5
331 -26 397 -101 323z"/>
<path d="M3300 2190 l0 -333 55 7 55 6 0 320 0 320 -55 6 -55 7 0 -333z"/>
<path d="M914 2368 c-28 -29 -16 -342 15 -367 80 -66 113 -9 107 186 -6 183
-52 251 -122 181z"/>
<path d="M3464 2185 c6 -193 6 -195 56 -195 50 0 50 2 56 195 l5 195 -61 0
-61 0 5 -195z"/>
</g>
</svg>
